<?xml version="1.0" encoding="utf-8"?>
<svg version="1.1" xmlns:xlink="http://www.w3.org/1999/xlink" width="30px" height="30px" xmlns="http://www.w3.org/2000/svg">
  <defs>
    <mask fill="white" id="clip6">
      <path d="M 0 15  C 0 14.9141461667258  0.000689453125566894 14.8284803661222  0.00206323451144589 14.7430077230544  C 0.135101199244395 6.46577628655178  6.68585383327423 0  15 0  C 23.4 0  30 6.6  30 15  C 30 23.4  23.4 30  15 30  C 6.6 30  0 23.4  0 15  Z " fill-rule="evenodd" />
    </mask>
  </defs>
  <g>
    <path d="M 0 15  C 0 14.9141461667258  0.000689453125566894 14.8284803661222  0.00206323451144589 14.7430077230544  C 0.135101199244395 6.46577628655178  6.68585383327423 0  15 0  C 23.4 0  30 6.6  30 15  C 30 23.4  23.4 30  15 30  C 6.6 30  0 23.4  0 15  Z " fill-rule="nonzero" fill="#ffffff" stroke="none" />
    <path d="M 0 15  C 0 14.9141461667258  0.000689453125566894 14.8284803661222  0.00206323451144589 14.7430077230544  C 0.135101199244395 6.46577628655178  6.68585383327423 0  15 0  C 23.4 0  30 6.6  30 15  C 30 23.4  23.4 30  15 30  C 6.6 30  0 23.4  0 15  Z " stroke-width="2" stroke="#333333" fill="none" mask="url(#clip6)" />
  </g>
</svg>