<?xml version="1.0" encoding="utf-8"?>
<svg version="1.1" xmlns:xlink="http://www.w3.org/1999/xlink" width="200px" height="4px" xmlns="http://www.w3.org/2000/svg">
  <defs>
    <mask fill="white" id="clip5">
      <path d="M 2 4  C 0.880000000000002 4  0 3.12  0 2  C 0 0.879999999999995  0.880000000000002 0  2 0  L 184.531914893617 0  L 198 0  C 199.12 0  200 0.879999999999995  200 2  C 200 3.12  199.12 4  198 4  L 146.234042553192 4  L 2 4  Z " fill-rule="evenodd" />
    </mask>
  </defs>
  <g transform="matrix(1 0 0 1 -62 -166 )">
    <path d="M 2 4  C 0.880000000000002 4  0 3.12  0 2  C 0 0.879999999999995  0.880000000000002 0  2 0  L 184.531914893617 0  L 198 0  C 199.12 0  200 0.879999999999995  200 2  C 200 3.12  199.12 4  198 4  L 146.234042553192 4  L 2 4  Z " fill-rule="nonzero" fill="#8c8c8c" stroke="none" transform="matrix(1 0 0 1 62 166 )" />
    <path d="M 2 4  C 0.880000000000002 4  0 3.12  0 2  C 0 0.879999999999995  0.880000000000002 0  2 0  L 184.531914893617 0  L 198 0  C 199.12 0  200 0.879999999999995  200 2  C 200 3.12  199.12 4  198 4  L 146.234042553192 4  L 2 4  Z " stroke-width="4" stroke="#8c8c8c" fill="none" transform="matrix(1 0 0 1 62 166 )" mask="url(#clip5)" />
  </g>
</svg>