<?xml version="1.0" encoding="utf-8"?>
<svg version="1.1" xmlns:xlink="http://www.w3.org/1999/xlink" width="84px" height="84px" xmlns="http://www.w3.org/2000/svg">
  <g transform="matrix(1 0 0 1 -409 -41 )">
    <path d="M 451 41  C 474.52 41  493 59.48  493 83  C 493 106.52  474.52 125  451 125  C 427.48 125  409 106.52  409 83  C 409 59.48  427.48 41  451 41  Z " fill-rule="nonzero" fill="#ffff80" stroke="none" />
    <path d="M 451 41.5  C 474.24 41.5  492.5 59.76  492.5 83  C 492.5 106.24  474.24 124.5  451 124.5  C 427.76 124.5  409.5 106.24  409.5 83  C 409.5 59.76  427.76 41.5  451 41.5  Z " stroke-width="1" stroke="#797979" fill="none" />
  </g>
</svg>