<?xml version="1.0" encoding="utf-8"?>
<svg version="1.1" xmlns:xlink="http://www.w3.org/1999/xlink" width="37px" height="34px" xmlns="http://www.w3.org/2000/svg">
  <g transform="matrix(1 0 0 1 -258 -216 )">
    <path d="M 7.99815692469721 9.21254125412541  C 8.48525539757767 8.65148514851485  8.7288046340179 7.97447744774477  8.7288046340179 7.18151815181518  C 8.7288046340179 6.38855885588558  8.48525539757767 5.71155115511551  7.99815692469721 5.15049504950495  C 7.51105845181675 4.58943894389439  6.92329296120765 4.30891089108911  6.23486045286993 4.30891089108911  C 5.54642794453221 4.30891089108911  4.95866245392312 4.58943894389439  4.47156398104265 5.15049504950495  C 3.98446550816219 5.71155115511551  3.74091627172196 6.38855885588558  3.74091627172196 7.18151815181518  C 3.74091627172196 7.97447744774477  3.98446550816219 8.65148514851485  4.47156398104265 9.21254125412541  C 4.95866245392312 9.77359735973597  5.54642794453221 10.0541254125413  6.23486045286993 10.0541254125413  C 6.92329296120765 10.0541254125413  7.51105845181675 9.77359735973597  7.99815692469721 9.21254125412541  Z M 28.797261716693 18.0660066006601  C 29.2778655432684 18.6495049504951  29.5181674565561 19.3302530253025  29.5181674565561 20.1082508250825  C 29.5181674565561 20.9012101210121  29.2778655432684 21.5744774477448  28.797261716693 22.1280528052805  L 19.2306477093207 33.1696369636964  C 18.724065297525 33.7232123212321  18.1330524837634 34  17.4576092680358 34  C 16.7691767596981 34  16.1846585922415 33.7232123212321  15.7040547656661 33.1696369636964  L 1.77303844128489 17.1009900990099  C 1.27944532209935 16.5474147414741  0.860540635422152 15.7918591859186  0.516324381253291 14.8343234323432  C 0.17210812708443 13.8767876787679  0 13.0015401540154  0 12.2085808580858  L 0 2.87260726072607  C 0 2.09460946094609  0.246796559592768 1.42134213421342  0.740389678778304 0.852805280528051  C 1.23398279796384 0.284268426842681  1.8185009654204 0  2.49394418114797 0  L 10.5992627698789 0  C 11.2876952782166 0  12.0475688959101 0.198239823982395  12.8788836229595 0.594719471947194  C 13.7101983500088 0.991199119911989  14.3726522731262 1.47370737073707  14.8662453923117 2.04224422442244  L 28.797261716693 18.0660066006601  Z M 36.2790942601369 18.0660066006601  C 36.7596980867123 18.6495049504951  37 19.3302530253025  37 20.1082508250825  C 37 20.9012101210121  36.7596980867123 21.5744774477448  36.2790942601369 22.1280528052805  L 26.7124802527646 33.1696369636964  C 26.2058978409689 33.7232123212321  25.6148850272073 34  24.9394418114797 34  C 24.4718272775145 34  24.0886431455152 33.8952695269527  23.7898894154818 33.6858085808581  C 23.4911356854485 33.4763476347635  23.1469194312796 33.1397139713971  22.7572406529752 32.6759075907591  L 31.914691943128 22.1280528052805  C 32.3952957697034 21.5744774477448  32.635597682991 20.9012101210121  32.635597682991 20.1082508250825  C 32.635597682991 19.3302530253025  32.3952957697034 18.6495049504951  31.914691943128 18.0660066006601  L 17.9836756187467 2.04224422442244  C 17.4900824995612 1.47370737073707  16.8276285764437 0.991199119911989  15.9963138493944 0.594719471947194  C 15.1649991223451 0.198239823982395  14.4051255046516 0  13.7166929963138 0  L 18.0810953133228 0  C 18.7695278216605 0  19.5294014393541 0.198239823982395  20.3607161664034 0.594719471947194  C 21.1920308934527 0.991199119911989  21.8544848165701 1.47370737073707  22.3480779357557 2.04224422442244  L 36.2790942601369 18.0660066006601  Z " fill-rule="nonzero" fill="#80f2e7" stroke="none" transform="matrix(1 0 0 1 258 216 )" />
  </g>
</svg>