<?xml version="1.0" encoding="utf-8"?>
<svg version="1.1" xmlns:xlink="http://www.w3.org/1999/xlink" width="45px" height="27px" xmlns="http://www.w3.org/2000/svg">
  <defs>
    <mask fill="white" id="clip3">
      <path d="M 13.5 27  C 5.94000000000005 27  0 21.0599999999999  0 13.5  C 0 5.94000000000005  5.94000000000005 0  13.5 0  L 31.5 0  C 39.0599999999999 0  45 5.94000000000005  45 13.5  C 45 21.0599999999999  39.0599999999999 27  31.5 27  L 19.3333333333333 27  L 13.5 27  Z " fill-rule="evenodd" />
    </mask>
  </defs>
  <g transform="matrix(1 0 0 1 -1590 -667 )">
    <path d="M 13.5 27  C 5.94000000000005 27  0 21.0599999999999  0 13.5  C 0 5.94000000000005  5.94000000000005 0  13.5 0  L 31.5 0  C 39.0599999999999 0  45 5.94000000000005  45 13.5  C 45 21.0599999999999  39.0599999999999 27  31.5 27  L 19.3333333333333 27  L 13.5 27  Z " fill-rule="nonzero" fill="#f23568" stroke="none" transform="matrix(1 0 0 1 1590 667 )" />
    <path d="M 13.5 27  C 5.94000000000005 27  0 21.0599999999999  0 13.5  C 0 5.94000000000005  5.94000000000005 0  13.5 0  L 31.5 0  C 39.0599999999999 0  45 5.94000000000005  45 13.5  C 45 21.0599999999999  39.0599999999999 27  31.5 27  L 19.3333333333333 27  L 13.5 27  Z " stroke-width="2" stroke="#797979" fill="none" transform="matrix(1 0 0 1 1590 667 )" mask="url(#clip3)" />
  </g>
</svg>