<?xml version="1.0" encoding="utf-8"?>
<svg version="1.1" xmlns:xlink="http://www.w3.org/1999/xlink" width="149px" height="52px" xmlns="http://www.w3.org/2000/svg">
  <defs>
    <mask fill="white" id="clip4">
      <path d="M 0 45.5  L 0 6.5  C 0 2.86000000000006  2.34142857142857 0  5.32142857142857 0  L 92.3799999999992 0  L 143.678571428571 0  C 146.658571428571 0  149 2.86000000000006  149 6.5  L 149 45.5  C 149 49.1399999999999  146.658571428571 52  143.678571428571 52  L 5.32142857142857 52  C 2.34142857142857 52  0 49.1399999999999  0 45.5  Z " fill-rule="evenodd" />
    </mask>
  </defs>
  <g transform="matrix(1 0 0 1 -61 -695 )">
    <path d="M 0 45.5  L 0 6.5  C 0 2.86000000000006  2.34142857142857 0  5.32142857142857 0  L 92.3799999999992 0  L 143.678571428571 0  C 146.658571428571 0  149 2.86000000000006  149 6.5  L 149 45.5  C 149 49.1399999999999  146.658571428571 52  143.678571428571 52  L 5.32142857142857 52  C 2.34142857142857 52  0 49.1399999999999  0 45.5  Z " fill-rule="nonzero" fill="#f23568" stroke="none" transform="matrix(1 0 0 1 61 695 )" />
    <path d="M 0 45.5  L 0 6.5  C 0 2.86000000000006  2.34142857142857 0  5.32142857142857 0  L 92.3799999999992 0  L 143.678571428571 0  C 146.658571428571 0  149 2.86000000000006  149 6.5  L 149 45.5  C 149 49.1399999999999  146.658571428571 52  143.678571428571 52  L 5.32142857142857 52  C 2.34142857142857 52  0 49.1399999999999  0 45.5  Z " stroke-width="26" stroke="#f23568" fill="none" transform="matrix(1 0 0 1 61 695 )" mask="url(#clip4)" />
  </g>
</svg>