<?xml version="1.0" encoding="utf-8"?>
<svg version="1.1" xmlns:xlink="http://www.w3.org/1999/xlink" width="181px" height="181px" xmlns="http://www.w3.org/2000/svg">
  <g transform="matrix(1 0 0 1 -109 -239 )">
    <path d="M 148.594401041667 103.344401041667  C 150.087022569444 101.851779513889  150.833333333333 100.084201388889  150 98.0416666666667  L 150 82.9583333333333  C 150.833333333333 80.9157986111111  150.087022569444 79.1482204861111  148.594401041667 77.6555989583333  C 147.101779513889 76.1629774305556  145.334201388889 75.4166666666667  143.291666666667 76  L 84.13671875 76  L 106.408203125 53.1451822916667  C 107.900824652778 51.6525607638889  108.647135416667 49.8849826388889  108.647135416667 47.8424479166667  C 108.647135416667 45.7999131944444  107.900824652778 44.0323350694444  106.408203125 42.5397135416667  L 95.6848958333333 31.81640625  C 94.2708333333333 30.40234375  92.5032552083333 29.6953125  90.3821614583333 29.6953125  C 88.2610677083333 29.6953125  86.4934895833333 30.40234375  85.0794270833333 31.81640625  L 42.421875 74.4739583333333  L 31.6985677083333 85.197265625  C 30.2845052083333 86.611328125  29.5774739583333 88.37890625  29.5774739583333 90.5  C 29.5774739583333 92.62109375  30.2845052083333 94.388671875  31.6985677083333 95.802734375  L 42.421875 106.526041666667  L 85.0794270833333 149.18359375  C 86.4934895833333 150.59765625  88.2610677083333 151.3046875  90.3821614583333 151.3046875  C 92.5032552083333 151.3046875  94.2708333333333 150.59765625  95.6848958333333 149.18359375  L 106.408203125 138.460286458333  C 107.822265625 137.046223958333  108.529296875 135.278645833333  108.529296875 133.157552083333  C 108.529296875 131.036458333333  107.822265625 129.268880208333  106.408203125 127.854817708333  L 84.13671875 105  L 143.291666666667 105  C 145.334201388889 105.583333333333  147.101779513889 104.837022569444  148.594401041667 103.344401041667  Z M 168.862630208333 45.0732421875  C 176.954210069444 58.9389105902778  181 74.0811631944444  181 90.5  C 181 106.918836805556  176.954210069444 122.061089409722  168.862630208333 135.9267578125  C 160.771050347222 149.792426215278  149.792426215278 160.771050347222  135.9267578125 168.862630208333  C 122.061089409722 176.954210069444  106.918836805556 181  90.5 181  C 74.0811631944445 181  58.9389105902778 176.954210069444  45.0732421875 168.862630208333  C 31.2075737847222 160.771050347222  20.2289496527778 149.792426215278  12.1373697916667 135.9267578125  C 4.04578993055556 122.061089409722  0 106.918836805556  0 90.5  C 0 74.0811631944444  4.04578993055556 58.9389105902778  12.1373697916667 45.0732421875  C 20.2289496527778 31.2075737847222  31.2075737847222 20.2289496527778  45.0732421875 12.1373697916667  C 58.9389105902778 4.04578993055554  74.0811631944445 0  90.5 0  C 106.918836805556 0  122.061089409722 4.04578993055554  135.9267578125 12.1373697916667  C 149.792426215278 20.2289496527778  160.771050347222 31.2075737847222  168.862630208333 45.0732421875  Z " fill-rule="nonzero" fill="#80f2e7" stroke="none" transform="matrix(1 0 0 1 109 239 )" />
  </g>
</svg>