<?xml version="1.0" encoding="utf-8"?>
<svg version="1.1" xmlns:xlink="http://www.w3.org/1999/xlink" width="181px" height="181px" xmlns="http://www.w3.org/2000/svg">
  <g transform="matrix(1 0 0 1 -1629 -239 )">
    <path d="M 149.301432291667 95.802734375  C 150.715494791667 94.388671875  151.422526041667 92.62109375  151.422526041667 90.5  C 151.422526041667 88.37890625  150.715494791667 86.611328125  149.301432291667 85.197265625  L 138.578125 74.4739583333333  L 95.9205729166667 31.81640625  C 94.5065104166667 30.40234375  92.7389322916667 29.6953125  90.6178385416667 29.6953125  C 88.4967447916667 29.6953125  86.7291666666667 30.40234375  85.3151041666667 31.81640625  L 74.591796875 42.5397135416667  C 73.177734375 43.9537760416667  72.470703125 45.7213541666667  72.470703125 47.8424479166667  C 72.470703125 49.9635416666667  73.177734375 51.7311197916667  74.591796875 53.1451822916667  L 96.86328125 76  L 37.7083333333333 76  C 35.6657986111111 75.4166666666667  33.8982204861111 76.1629774305556  32.4055989583333 77.6555989583333  C 30.9129774305556 79.1482204861111  30.1666666666667 80.9157986111111  31 82.9583333333333  L 31 98.0416666666667  C 30.1666666666667 100.084201388889  30.9129774305556 101.851779513889  32.4055989583333 103.344401041667  C 33.8982204861111 104.837022569444  35.6657986111111 105.583333333333  37.7083333333333 105  L 96.86328125 105  L 74.591796875 127.854817708333  C 73.0991753472222 129.347439236111  72.3528645833333 131.115017361111  72.3528645833333 133.157552083333  C 72.3528645833333 135.200086805556  73.0991753472222 136.967664930556  74.591796875 138.460286458333  L 85.3151041666667 149.18359375  C 86.7291666666667 150.59765625  88.4967447916667 151.3046875  90.6178385416667 151.3046875  C 92.7389322916667 151.3046875  94.5065104166667 150.59765625  95.9205729166667 149.18359375  L 138.578125 106.526041666667  L 149.301432291667 95.802734375  Z M 168.862630208333 45.0732421875  C 176.954210069444 58.9389105902778  181 74.0811631944444  181 90.5  C 181 106.918836805556  176.954210069444 122.061089409722  168.862630208333 135.9267578125  C 160.771050347222 149.792426215278  149.792426215278 160.771050347222  135.9267578125 168.862630208333  C 122.061089409722 176.954210069444  106.918836805556 181  90.5 181  C 74.0811631944445 181  58.9389105902778 176.954210069444  45.0732421875 168.862630208333  C 31.2075737847222 160.771050347222  20.2289496527778 149.792426215278  12.1373697916667 135.9267578125  C 4.04578993055556 122.061089409722  0 106.918836805556  0 90.5  C 0 74.0811631944444  4.04578993055556 58.9389105902778  12.1373697916667 45.0732421875  C 20.2289496527778 31.2075737847222  31.2075737847222 20.2289496527778  45.0732421875 12.1373697916667  C 58.9389105902778 4.04578993055554  74.0811631944445 0  90.5 0  C 106.918836805556 0  122.061089409722 4.04578993055554  135.9267578125 12.1373697916667  C 149.792426215278 20.2289496527778  160.771050347222 31.2075737847222  168.862630208333 45.0732421875  Z " fill-rule="nonzero" fill="#80f2e7" stroke="none" transform="matrix(1 0 0 1 1629 239 )" />
  </g>
</svg>