<?xml version="1.0" encoding="utf-8"?>
<svg version="1.1" xmlns:xlink="http://www.w3.org/1999/xlink" width="95px" height="95px" xmlns="http://www.w3.org/2000/svg">
  <g transform="matrix(1 0 0 1 -1160 -1941 )">
    <path d="M 78.3626302083333 50.283203125  C 79.1048177083333 49.541015625  79.4759114583333 48.61328125  79.4759114583333 47.5  C 79.4759114583333 46.38671875  79.1048177083333 45.458984375  78.3626302083333 44.716796875  L 72.734375 39.0885416666667  L 50.3450520833333 16.69921875  C 49.6028645833333 15.95703125  48.6751302083333 15.5859375  47.5618489583333 15.5859375  C 46.4485677083333 15.5859375  45.5208333333333 15.95703125  44.7786458333333 16.69921875  L 39.150390625 22.3274739583333  C 38.408203125 23.0696614583333  38.037109375 23.9973958333333  38.037109375 25.1106770833333  C 38.037109375 26.2239583333333  38.408203125 27.1516927083333  39.150390625 27.8938802083333  L 50.83984375 40  L 19.7916666666667 40  C 18.7196180555556 39.5833333333333  17.7918836805556 39.9750434027778  17.0084635416667 40.7584635416667  C 16.2250434027778 41.5418836805556  15.8333333333333 42.4696180555556  15.8333333333333 43.5416666666667  L 15.8333333333333 51.4583333333333  C 15.8333333333333 52.5303819444444  16.2250434027778 53.4581163194444  17.0084635416667 54.2415364583333  C 17.7918836805556 55.0249565972222  18.7196180555556 55.4166666666667  19.7916666666667 55  L 50.83984375 55  L 39.150390625 67.1061197916667  C 38.3669704861111 67.8895399305555  37.9752604166667 68.8172743055555  37.9752604166667 69.8893229166667  C 37.9752604166667 70.9613715277778  38.3669704861111 71.8891059027778  39.150390625 72.6725260416667  L 44.7786458333333 78.30078125  C 45.5208333333333 79.04296875  46.4485677083333 79.4140625  47.5618489583333 79.4140625  C 48.6751302083333 79.4140625  49.6028645833333 79.04296875  50.3450520833333 78.30078125  L 72.734375 55.9114583333333  L 78.3626302083333 50.283203125  Z M 88.6295572916667 23.6572265625  C 92.8765190972222 30.9347873263889  95 38.8823784722222  95 47.5  C 95 56.1176215277778  92.8765190972222 64.0652126736111  88.6295572916667 71.3427734375  C 84.3825954861111 78.6203342013889  78.6203342013889 84.3825954861111  71.3427734375 88.6295572916667  C 64.0652126736111 92.8765190972222  56.1176215277778 95  47.5 95  C 38.8823784722222 95  30.9347873263889 92.8765190972222  23.6572265625 88.6295572916667  C 16.3796657986111 84.3825954861111  10.6174045138889 78.6203342013889  6.37044270833333 71.3427734375  C 2.12348090277778 64.0652126736111  0 56.1176215277778  0 47.5  C 0 38.8823784722222  2.12348090277778 30.9347873263889  6.37044270833333 23.6572265625  C 10.6174045138889 16.3796657986111  16.3796657986111 10.6174045138889  23.6572265625 6.37044270833333  C 30.9347873263889 2.12348090277777  38.8823784722222 0  47.5 0  C 56.1176215277778 0  64.0652126736111 2.12348090277777  71.3427734375 6.37044270833333  C 78.6203342013889 10.6174045138889  84.3825954861111 16.3796657986111  88.6295572916667 23.6572265625  Z " fill-rule="nonzero" fill="#384d59" stroke="none" transform="matrix(1 0 0 1 1160 1941 )" />
  </g>
</svg>