<?xml version="1.0" encoding="utf-8"?>
<svg version="1.1" xmlns:xlink="http://www.w3.org/1999/xlink" width="95px" height="95px" xmlns="http://www.w3.org/2000/svg">
  <g transform="matrix(1 0 0 1 -665 -1941 )">
    <path d="M 77.9915364583333 54.2415364583333  C 78.7749565972222 53.4581163194444  79.1666666666667 52.5303819444444  79.1666666666667 51.4583333333333  L 79.1666666666667 43.5416666666667  C 79.1666666666667 42.4696180555556  78.7749565972222 41.5418836805556  77.9915364583333 40.7584635416667  C 77.2081163194445 39.9750434027778  76.2803819444445 39.5833333333333  75.2083333333333 40  L 44.16015625 40  L 55.849609375 27.8938802083333  C 56.6330295138889 27.1104600694444  57.0247395833333 26.1827256944444  57.0247395833333 25.1106770833333  C 57.0247395833333 24.0386284722222  56.6330295138889 23.1108940972222  55.849609375 22.3274739583333  L 50.2213541666667 16.69921875  C 49.4791666666667 15.95703125  48.5514322916667 15.5859375  47.4381510416667 15.5859375  C 46.3248697916667 15.5859375  45.3971354166667 15.95703125  44.6549479166667 16.69921875  L 22.265625 39.0885416666667  L 16.6373697916667 44.716796875  C 15.8951822916667 45.458984375  15.5240885416667 46.38671875  15.5240885416667 47.5  C 15.5240885416667 48.61328125  15.8951822916667 49.541015625  16.6373697916667 50.283203125  L 22.265625 55.9114583333333  L 44.6549479166667 78.30078125  C 45.3971354166667 79.04296875  46.3248697916667 79.4140625  47.4381510416667 79.4140625  C 48.5514322916667 79.4140625  49.4791666666667 79.04296875  50.2213541666667 78.30078125  L 55.849609375 72.6725260416667  C 56.591796875 71.9303385416667  56.962890625 71.0026041666667  56.962890625 69.8893229166667  C 56.962890625 68.7760416666667  56.591796875 67.8483072916667  55.849609375 67.1061197916667  L 44.16015625 55  L 75.2083333333333 55  C 76.2803819444445 55.4166666666667  77.2081163194445 55.0249565972222  77.9915364583333 54.2415364583333  Z M 88.6295572916667 23.6572265625  C 92.8765190972222 30.9347873263889  95 38.8823784722222  95 47.5  C 95 56.1176215277778  92.8765190972222 64.0652126736111  88.6295572916667 71.3427734375  C 84.3825954861111 78.6203342013889  78.6203342013889 84.3825954861111  71.3427734375 88.6295572916667  C 64.0652126736111 92.8765190972222  56.1176215277778 95  47.5 95  C 38.8823784722222 95  30.9347873263889 92.8765190972222  23.6572265625 88.6295572916667  C 16.3796657986111 84.3825954861111  10.6174045138889 78.6203342013889  6.37044270833333 71.3427734375  C 2.12348090277778 64.0652126736111  0 56.1176215277778  0 47.5  C 0 38.8823784722222  2.12348090277778 30.9347873263889  6.37044270833333 23.6572265625  C 10.6174045138889 16.3796657986111  16.3796657986111 10.6174045138889  23.6572265625 6.37044270833333  C 30.9347873263889 2.12348090277777  38.8823784722222 0  47.5 0  C 56.1176215277778 0  64.0652126736111 2.12348090277777  71.3427734375 6.37044270833333  C 78.6203342013889 10.6174045138889  84.3825954861111 16.3796657986111  88.6295572916667 23.6572265625  Z " fill-rule="nonzero" fill="#384d59" stroke="none" transform="matrix(1 0 0 1 665 1941 )" />
  </g>
</svg>