<?xml version="1.0" encoding="utf-8"?>
<svg version="1.1" xmlns:xlink="http://www.w3.org/1999/xlink" width="120px" height="120px" xmlns="http://www.w3.org/2000/svg">
  <g transform="matrix(1 0 0 1 -65 -14 )">
    <path d="M 17.4348212389381 76.8822902654867  C 11.1563267256637 61.0649415929204  14.2459284955752 43.6360566371681  24.5132930973451 31.0898017699115  L 24.4139851752212 38.1020325663717  L 38.5323706619469 38.3999619823009  L 39.0675391221239 7.28926109734514  L 7.96248779469026 6.75961507964602  L 7.67008082123894 20.8780005663717  L 14.5389540955752 20.9717931079646  C 0.321842591150439 37.4798001876106  -4.1031733380531 60.9000408955752  4.30463940530973 82.0957683292036  C 13.5072036530973 105.301325851327  35.7246535646018 119.899782488496  59.8454394053097 119.899782488496  C 63.9170755115044 119.899782488496  68.0439360424779 119.480472329204  72.1707965734513 118.625327054867  L 69.2852850690266 104.799306169912  C 47.4652815292035 109.345505107965  25.6551647150442 97.610526700885  17.435058520354 76.8820176743363  Z M 115.689100884956 37.8975185840708  C 104.930648495575 10.7867044247788  76.390778761062 -4.57303008849558  47.8336778761062 1.37454159292035  L 50.7136810619469 15.2005624778761  C 72.5336846017699 10.654363539823  94.3438014159292 22.3893419469027  102.563907610619 43.1065518584071  C 108.847910442478 58.9351996460177  105.752800353982 76.3810332743363  95.4744191150443 88.9258757522124  L 95.5626934513274 81.8529122123894  L 81.4387996460177 81.5880892035398  L 80.9588132389381 112.693140530973  L 112.063864566372 113.173126938053  L 112.328687575221 99.0547414513274  L 105.50953040708 98.9664671150442  C 119.68850739823 82.4697591504425  124.096574654867 59.0777662300885  115.688620672566 37.897575079646  Z " fill-rule="nonzero" fill="#80ffff" stroke="none" fill-opacity="0.996078431372549" transform="matrix(1 0 0 1 65 14 )" />
  </g>
</svg>