<?xml version="1.0" encoding="utf-8"?>
<svg version="1.1" xmlns:xlink="http://www.w3.org/1999/xlink" width="33px" height="19px" xmlns="http://www.w3.org/2000/svg">
  <g transform="matrix(1 0 0 1 -129 -5 )">
    <path d="M 32.3876953125 0.626736111111112  C 32.7958984375 1.04456018518518  33 1.53935185185185  33 2.11111111111111  C 33 2.68287037037037  32.7958984375 3.17766203703703  32.3876953125 3.59548611111111  L 17.9501953125 18.3732638888889  C 17.5419921875 18.791087962963  17.05859375 19  16.5 19  C 15.94140625 19  15.4580078125 18.791087962963  15.0498046875 18.3732638888889  L 0.6123046875 3.59548611111111  C 0.2041015625 3.17766203703703  0 2.68287037037037  0 2.11111111111111  C 0 1.53935185185185  0.2041015625 1.04456018518518  0.6123046875 0.626736111111112  C 1.0205078125 0.208912037037035  1.50390625 0  2.0625 0  L 30.9375 0  C 31.49609375 0  31.9794921875 0.208912037037035  32.3876953125 0.626736111111112  Z " fill-rule="nonzero" fill="#7787a6" stroke="none" transform="matrix(1 0 0 1 129 5 )" />
  </g>
</svg>