<?xml version="1.0" encoding="utf-8"?>
<svg version="1.1" xmlns:xlink="http://www.w3.org/1999/xlink" width="34px" height="19px" xmlns="http://www.w3.org/2000/svg">
  <g transform="matrix(1 0 0 1 -130 -5 )">
    <path d="M 33.369140625 15.4045138888889  C 33.7897135416667 15.822337962963  34 16.3171296296296  34 16.8888888888889  C 34 17.4606481481481  33.7897135416667 17.9554398148148  33.369140625 18.3732638888889  C 32.9485677083333 18.791087962963  32.4505208333333 19  31.875 19  L 2.125 19  C 1.54947916666667 19  1.05143229166667 18.791087962963  0.630859375 18.3732638888889  C 0.210286458333333 17.9554398148148  0 17.4606481481481  0 16.8888888888889  C 0 16.3171296296296  0.210286458333333 15.822337962963  0.630859375 15.4045138888889  L 15.505859375 0.626736111111112  C 15.9264322916667 0.208912037037035  16.4244791666667 0  17 0  C 17.5755208333333 0  18.0735677083333 0.208912037037035  18.494140625 0.626736111111112  L 33.369140625 15.4045138888889  Z " fill-rule="nonzero" fill="#7787a6" stroke="none" transform="matrix(1 0 0 1 130 5 )" />
  </g>
</svg>