<?xml version="1.0" encoding="utf-8"?>
<svg version="1.1" xmlns:xlink="http://www.w3.org/1999/xlink" width="29px" height="27px" xmlns="http://www.w3.org/2000/svg">
  <g>
    <path d="M 21.9765625 24.416015625  C 22.1973157051282 24.193359375  22.3076923076923 23.9296875  22.3076923076923 23.625  C 22.3076923076923 23.3203125  22.1973157051282 23.056640625  21.9765625 22.833984375  C 21.7558092948718 22.611328125  21.494391025641 22.5  21.1923076923077 22.5  C 20.8902243589744 22.5  20.6288060897436 22.611328125  20.4080528846154 22.833984375  C 20.1872996794872 23.056640625  20.0769230769231 23.3203125  20.0769230769231 23.625  C 20.0769230769231 23.9296875  20.1872996794872 24.193359375  20.4080528846154 24.416015625  C 20.6288060897436 24.638671875  20.8902243589744 24.75  21.1923076923077 24.75  C 21.494391025641 24.75  21.7558092948718 24.638671875  21.9765625 24.416015625  Z M 26.4381009615385 24.416015625  C 26.6588541666667 24.193359375  26.7692307692308 23.9296875  26.7692307692308 23.625  C 26.7692307692308 23.3203125  26.6588541666667 23.056640625  26.4381009615385 22.833984375  C 26.2173477564103 22.611328125  25.9559294871795 22.5  25.6538461538462 22.5  C 25.3517628205128 22.5  25.0903445512821 22.611328125  24.8695913461538 22.833984375  C 24.6488381410256 23.056640625  24.5384615384615 23.3203125  24.5384615384615 23.625  C 24.5384615384615 23.9296875  24.6488381410256 24.193359375  24.8695913461538 24.416015625  C 25.0903445512821 24.638671875  25.3517628205128 24.75  25.6538461538462 24.75  C 25.9559294871795 24.75  26.2173477564103 24.638671875  26.4381009615385 24.416015625  Z M 28.5120192307692 18.4921875  C 28.8373397435897 18.8203125  29 19.21875  29 19.6875  L 29 25.3125  C 29 25.78125  28.8373397435897 26.1796875  28.5120192307692 26.5078125  C 28.1866987179487 26.8359375  27.7916666666667 27  27.3269230769231 27  L 1.67307692307692 27  C 1.20833333333333 27  0.813301282051282 26.8359375  0.487980769230769 26.5078125  C 0.162660256410256 26.1796875  0 25.78125  0 25.3125  L 0 19.6875  C 0 19.21875  0.162660256410256 18.8203125  0.487980769230769 18.4921875  C 0.813301282051282 18.1640625  1.20833333333333 18  1.67307692307692 18  L 9.77704326923077 18  L 12.1298076923077 20.390625  C 12.8036858974359 21.046875  13.59375 21.375  14.5 21.375  C 15.40625 21.375  16.1963141025641 21.046875  16.8701923076923 20.390625  L 19.2403846153846 18  L 27.3269230769231 18  C 27.7916666666667 18  28.1866987179487 18.1640625  28.5120192307692 18.4921875  Z M 22.3076923076923 9  C 22.7956730769231 9  23.138421474359 9.228515625  23.3359375 9.685546875  C 23.533453525641 10.166015625  23.4521233974359 10.576171875  23.0919471153846 10.916015625  L 15.2842548076923 18.791015625  C 15.0751201923077 19.013671875  14.8137019230769 19.125  14.5 19.125  C 14.1862980769231 19.125  13.9248798076923 19.013671875  13.7157451923077 18.791015625  L 5.90805288461538 10.916015625  C 5.5478766025641 10.576171875  5.46654647435898 10.166015625  5.6640625 9.685546875  C 5.86157852564103 9.228515625  6.20432692307692 9  6.69230769230769 9  L 11.1538461538462 9  L 11.1538461538462 1.125  C 11.1538461538462 0.820312499999996  11.2642227564103 0.556640624999996  11.4849759615385 0.333984374999999  C 11.7057291666667 0.111328125000002  11.9671474358974 0  12.2692307692308 0  L 16.7307692307692 0  C 17.0328525641026 0  17.2942708333333 0.111328125000002  17.5150240384615 0.333984374999999  C 17.7357772435897 0.556640624999996  17.8461538461538 0.820312499999996  17.8461538461538 1.125  L 17.8461538461538 9  L 22.3076923076923 9  Z " fill-rule="nonzero" fill="#80ffff" stroke="none" fill-opacity="0.996078431372549" />
  </g>
</svg>