<?xml version="1.0" encoding="utf-8"?>
<svg version="1.1" xmlns:xlink="http://www.w3.org/1999/xlink" width="94px" height="94px" xmlns="http://www.w3.org/2000/svg">
  <g transform="matrix(1 0 0 1 -135 -69 )">
    <path d="M 77.4765625 49.6927083333333  C 78.2109375 48.9583333333333  78.578125 48.0403645833333  78.578125 46.9388020833333  C 78.578125 45.8372395833333  78.2109375 44.9192708333333  77.4765625 44.1848958333333  L 55.3229166666667 22.03125  L 49.75390625 16.4622395833333  C 49.01953125 15.7278645833333  48.1015625 15.3606770833333  47 15.3606770833333  C 45.8984375 15.3606770833333  44.98046875 15.7278645833333  44.24609375 16.4622395833333  L 38.6770833333333 22.03125  L 16.5234375 44.1848958333333  C 15.7890625 44.9192708333333  15.421875 45.8372395833333  15.421875 46.9388020833333  C 15.421875 48.0403645833333  15.7890625 48.9583333333333  16.5234375 49.6927083333333  L 22.0924479166667 55.26171875  C 22.8268229166667 55.99609375  23.7447916666667 56.36328125  24.8463541666667 56.36328125  C 25.9479166666667 56.36328125  26.8658854166667 55.99609375  27.6002604166667 55.26171875  L 40 43.6953125  L 40 74.4166666666667  C 39.1666666666667 75.4774305555556  39.5542534722222 76.3953993055556  40.3294270833333 77.1705729166667  C 41.1046006944445 77.9457465277778  42.0225694444445 78.3333333333333  43.0833333333333 78.3333333333333  L 50.9166666666667 78.3333333333333  C 51.9774305555556 78.3333333333333  52.8953993055556 77.9457465277778  53.6705729166667 77.1705729166667  C 54.4457465277778 76.3953993055556  54.8333333333333 75.4774305555556  54 74.4166666666667  L 54 43.6953125  L 66.3997395833333 55.26171875  C 67.1749131944444 56.0368923611111  68.0928819444444 56.4244791666667  69.1536458333333 56.4244791666667  C 70.2144097222222 56.4244791666667  71.1323784722222 56.0368923611111  71.9075520833333 55.26171875  L 77.4765625 49.6927083333333  Z M 87.6966145833333 23.408203125  C 91.8988715277778 30.6091579861111  94 38.4730902777778  94 47  C 94 55.5269097222222  91.8988715277778 63.3908420138889  87.6966145833333 70.591796875  C 83.4943576388889 77.7927517361111  77.7927517361111 83.4943576388889  70.591796875 87.6966145833333  C 63.3908420138889 91.8988715277778  55.5269097222222 94  47 94  C 38.4730902777778 94  30.6091579861111 91.8988715277778  23.408203125 87.6966145833333  C 16.2072482638889 83.4943576388889  10.5056423611111 77.7927517361111  6.30338541666667 70.591796875  C 2.10112847222222 63.3908420138889  0 55.5269097222222  0 47  C 0 38.4730902777778  2.10112847222222 30.6091579861111  6.30338541666667 23.408203125  C 10.5056423611111 16.2072482638889  16.2072482638889 10.5056423611111  23.408203125 6.30338541666666  C 30.6091579861111 2.10112847222221  38.4730902777778 0  47 0  C 55.5269097222222 0  63.3908420138889 2.10112847222221  70.591796875 6.30338541666666  C 77.7927517361111 10.5056423611111  83.4943576388889 16.2072482638889  87.6966145833333 23.408203125  Z " fill-rule="nonzero" fill="#384d59" stroke="none" transform="matrix(1 0 0 1 135 69 )" />
  </g>
</svg>