<?xml version="1.0" encoding="utf-8"?>
<svg version="1.1" xmlns:xlink="http://www.w3.org/1999/xlink" width="94px" height="94px" xmlns="http://www.w3.org/2000/svg">
  <g transform="matrix(1 0 0 1 -135 -708 )">
    <path d="M 77.4765625 49.8151041666667  C 78.2109375 49.0807291666667  78.578125 48.1627604166667  78.578125 47.0611979166667  C 78.578125 45.9596354166667  78.2109375 45.0416666666667  77.4765625 44.3072916666667  L 71.9075520833333 38.73828125  C 71.1731770833333 38.00390625  70.2552083333333 37.63671875  69.1536458333333 37.63671875  C 68.0520833333333 37.63671875  67.1341145833333 38.00390625  66.3997395833333 38.73828125  L 54 50.3046875  L 54 19.5833333333333  C 54.8333333333333 18.5225694444444  54.4457465277778 17.6046006944444  53.6705729166667 16.8294270833333  C 52.8953993055556 16.0542534722222  51.9774305555556 15.6666666666667  50.9166666666667 15.6666666666667  L 43.0833333333333 15.6666666666667  C 42.0225694444445 15.6666666666667  41.1046006944445 16.0542534722222  40.3294270833333 16.8294270833333  C 39.5542534722222 17.6046006944444  39.1666666666667 18.5225694444444  40 19.5833333333333  L 40 50.3046875  L 27.6002604166667 38.73828125  C 26.8250868055556 37.9631076388889  25.9071180555556 37.5755208333333  24.8463541666667 37.5755208333333  C 23.7855902777778 37.5755208333333  22.8676215277778 37.9631076388889  22.0924479166667 38.73828125  L 16.5234375 44.3072916666667  C 15.7890625 45.0416666666667  15.421875 45.9596354166667  15.421875 47.0611979166667  C 15.421875 48.1627604166667  15.7890625 49.0807291666667  16.5234375 49.8151041666667  L 38.6770833333333 71.96875  L 44.24609375 77.5377604166667  C 44.98046875 78.2721354166667  45.8984375 78.6393229166667  47 78.6393229166667  C 48.1015625 78.6393229166667  49.01953125 78.2721354166667  49.75390625 77.5377604166667  L 55.3229166666667 71.96875  L 77.4765625 49.8151041666667  Z M 87.6966145833333 23.408203125  C 91.8988715277778 30.6091579861111  94 38.4730902777778  94 47  C 94 55.5269097222222  91.8988715277778 63.3908420138889  87.6966145833333 70.591796875  C 83.4943576388889 77.7927517361111  77.7927517361111 83.4943576388889  70.591796875 87.6966145833333  C 63.3908420138889 91.8988715277778  55.5269097222222 94  47 94  C 38.4730902777778 94  30.6091579861111 91.8988715277778  23.408203125 87.6966145833333  C 16.2072482638889 83.4943576388889  10.5056423611111 77.7927517361111  6.30338541666667 70.591796875  C 2.10112847222222 63.3908420138889  0 55.5269097222222  0 47  C 0 38.4730902777778  2.10112847222222 30.6091579861111  6.30338541666667 23.408203125  C 10.5056423611111 16.2072482638889  16.2072482638889 10.5056423611111  23.408203125 6.30338541666666  C 30.6091579861111 2.10112847222221  38.4730902777778 0  47 0  C 55.5269097222222 0  63.3908420138889 2.10112847222221  70.591796875 6.30338541666666  C 77.7927517361111 10.5056423611111  83.4943576388889 16.2072482638889  87.6966145833333 23.408203125  Z " fill-rule="nonzero" fill="#80f2e7" stroke="none" transform="matrix(1 0 0 1 135 708 )" />
  </g>
</svg>