<?xml version="1.0" encoding="utf-8"?>
<svg version="1.1" xmlns:xlink="http://www.w3.org/1999/xlink" width="42px" height="40px" xmlns="http://www.w3.org/2000/svg">
  <g transform="matrix(1 0 0 1 -1232 -303 )">
    <path d="M 40.5865384615385 14.341524889729  C 41.5288461538462 14.4927536231884  42 14.8792270531401  42 15.5009451795841  C 42 15.8706154169292  41.78125 16.2738920394875  41.34375 16.710775047259  L 32.1814903846154 25.6332703213611  L 34.3521634615385 38.2356647763075  C 34.3689903846154 38.3532871245537  34.3774038461538 38.5213190506196  34.3774038461538 38.7397605545054  C 34.3774038461538 39.0926275992439  34.2890625 39.3908842680109  34.1123798076923 39.6345305608066  C 33.9356971153846 39.8781768536022  33.6790865384615 40  33.3425480769231 40  C 33.0228365384615 40  32.6862980769231 39.8991808443604  32.3329326923077 39.6975425330813  L 21 33.7492123503466  L 9.66706730769231 39.6975425330813  C 9.296875 39.8991808443604  8.96033653846154 40  8.65745192307692 40  C 8.30408653846154 40  8.0390625 39.8781768536022  7.86237980769231 39.6345305608066  C 7.68569711538462 39.3908842680109  7.59735576923077 39.0926275992439  7.59735576923077 38.7397605545054  C 7.59735576923077 38.6389413988658  7.61418269230769 38.4709094727998  7.64783653846154 38.2356647763075  L 9.81850961538462 25.6332703213611  L 0.631009615384615 16.710775047259  C 0.210336538461538 16.2570888468809  0 15.8538122243226  0 15.5009451795841  C 0 14.8792270531401  0.471153846153846 14.4927536231884  1.41346153846154 14.341524889729  L 14.0841346153846 12.5015752993069  L 19.7632211538462 1.03339634530561  C 20.0829326923077 0.344465448435201  20.4951923076923 0  21 0  C 21.5048076923077 0  21.9170673076923 0.344465448435201  22.2367788461538 1.03339634530561  L 27.9158653846154 12.5015752993069  L 40.5865384615385 14.341524889729  Z " fill-rule="nonzero" fill="#0f2859" stroke="none" transform="matrix(1 0 0 1 1232 303 )" />
  </g>
</svg>