<?xml version="1.0" encoding="utf-8"?>
<svg version="1.1" xmlns:xlink="http://www.w3.org/1999/xlink" width="120px" height="106px" xmlns="http://www.w3.org/2000/svg">
  <g>
    <path d="M 3 24  A 21 21 0 0 1 24 3 L 96 3  A 21 21 0 0 1 117 24 L 117 82  A 21 21 0 0 1 96 103 L 24 103  A 21 21 0 0 1 3 82 L 3 24  Z " fill-rule="nonzero" fill="#0f2859" stroke="none" fill-opacity="0.733333333333333" />
    <path d="M 1.5 24  A 22.5 22.5 0 0 1 24 1.5 L 96 1.5  A 22.5 22.5 0 0 1 118.5 24 L 118.5 82  A 22.5 22.5 0 0 1 96 104.5 L 24 104.5  A 22.5 22.5 0 0 1 1.5 82 L 1.5 24  Z " stroke-width="3" stroke-dasharray="9,3" stroke="#80f2e7" fill="none" stroke-opacity="0.76078431372549" stroke-dashoffset="0.5" />
  </g>
</svg>