<?xml version="1.0" encoding="utf-8"?>
<svg version="1.1" xmlns:xlink="http://www.w3.org/1999/xlink" width="54px" height="54px" xmlns="http://www.w3.org/2000/svg">
  <g transform="matrix(1 0 0 1 -870 -28 )">
    <path d="M 52.7272727272727 40.3636363636364  C 53.5757575757576 41.2121212121212  54 42.2424242424242  54 43.4545454545455  C 54 44.6666666666667  53.5757575757576 45.6969696969697  52.7272727272727 46.5454545454545  L 46.5454545454545 52.7272727272727  C 45.6969696969697 53.5757575757576  44.6666666666667 54  43.4545454545455 54  C 42.2424242424242 54  41.2121212121212 53.5757575757576  40.3636363636364 52.7272727272727  L 27 39.3636363636364  L 13.6363636363636 52.7272727272727  C 12.7878787878788 53.5757575757576  11.7575757575758 54  10.5454545454545 54  C 9.33333333333333 54  8.3030303030303 53.5757575757576  7.45454545454546 52.7272727272727  L 1.27272727272727 46.5454545454545  C 0.424242424242425 45.6969696969697  0 44.6666666666667  0 43.4545454545455  C 0 42.2424242424242  0.424242424242425 41.2121212121212  1.27272727272727 40.3636363636364  L 14.6363636363636 27  L 1.27272727272727 13.6363636363636  C 0.424242424242425 12.7878787878788  0 11.7575757575758  0 10.5454545454545  C 0 9.33333333333333  0.424242424242425 8.3030303030303  1.27272727272727 7.45454545454546  L 7.45454545454546 1.27272727272727  C 8.3030303030303 0.424242424242422  9.33333333333333 0  10.5454545454545 0  C 11.7575757575758 0  12.7878787878788 0.424242424242422  13.6363636363636 1.27272727272727  L 27 14.6363636363636  L 40.3636363636364 1.27272727272727  C 41.2121212121212 0.424242424242422  42.2424242424242 0  43.4545454545455 0  C 44.6666666666667 0  45.6969696969697 0.424242424242422  46.5454545454545 1.27272727272727  L 52.7272727272727 7.45454545454546  C 53.5757575757576 8.3030303030303  54 9.33333333333333  54 10.5454545454545  C 54 11.7575757575758  53.5757575757576 12.7878787878788  52.7272727272727 13.6363636363636  L 39.3636363636364 27  L 52.7272727272727 40.3636363636364  Z " fill-rule="nonzero" fill="#80f2e7" stroke="none" transform="matrix(1 0 0 1 870 28 )" />
  </g>
</svg>