<?xml version="1.0" encoding="utf-8"?>
<svg version="1.1" xmlns:xlink="http://www.w3.org/1999/xlink" width="107px" height="107px" xmlns="http://www.w3.org/2000/svg">
  <g transform="matrix(1 0 0 1 -1433 -215 )">
    <path d="M 88.2610677083333 56.634765625  C 89.0970052083333 55.798828125  89.5149739583333 54.75390625  89.5149739583333 53.5  C 89.5149739583333 52.24609375  89.0970052083333 51.201171875  88.2610677083333 50.365234375  L 81.921875 44.0260416666667  L 56.7044270833333 18.80859375  C 55.8684895833333 17.97265625  54.8235677083333 17.5546875  53.5696614583333 17.5546875  C 52.3157552083333 17.5546875  51.2708333333333 17.97265625  50.4348958333333 18.80859375  L 44.095703125 25.1477864583333  C 43.259765625 25.9837239583333  42.841796875 27.0286458333333  42.841796875 28.2825520833333  C 42.841796875 29.5364583333333  43.259765625 30.5813802083333  44.095703125 31.4173177083333  L 57.26171875 45  L 22.2916666666667 45  C 21.0842013888889 44.5833333333333  20.0392795138889 45.0245225694445  19.1569010416667 45.9069010416667  C 18.2745225694444 46.7892795138889  17.8333333333333 47.8342013888889  17.8333333333333 49.0416666666667  L 17.8333333333333 57.9583333333333  C 17.8333333333333 59.1657986111111  18.2745225694444 60.2107204861111  19.1569010416667 61.0930989583333  C 20.0392795138889 61.9754774305556  21.0842013888889 62.4166666666667  22.2916666666667 62  L 57.26171875 62  L 44.095703125 75.5826822916667  C 43.2133246527778 76.4650607638889  42.7721354166667 77.5099826388889  42.7721354166667 78.7174479166667  C 42.7721354166667 79.9249131944444  43.2133246527778 80.9698350694444  44.095703125 81.8522135416667  L 50.4348958333333 88.19140625  C 51.2708333333333 89.02734375  52.3157552083333 89.4453125  53.5696614583333 89.4453125  C 54.8235677083333 89.4453125  55.8684895833333 89.02734375  56.7044270833333 88.19140625  L 81.921875 62.9739583333333  L 88.2610677083333 56.634765625  Z M 99.8248697916667 26.6455078125  C 104.608289930556 34.8423394097222  107 43.7938368055555  107 53.5  C 107 63.2061631944445  104.608289930556 72.1576605902778  99.8248697916667 80.3544921875  C 95.0414496527778 88.5513237847222  88.5513237847222 95.0414496527778  80.3544921875 99.8248697916667  C 72.1576605902778 104.608289930556  63.2061631944445 107  53.5 107  C 43.7938368055556 107  34.8423394097222 104.608289930556  26.6455078125 99.8248697916667  C 18.4486762152778 95.0414496527778  11.9585503472222 88.5513237847222  7.17513020833333 80.3544921875  C 2.39171006944444 72.1576605902778  0 63.2061631944445  0 53.5  C 0 43.7938368055555  2.39171006944444 34.8423394097222  7.17513020833333 26.6455078125  C 11.9585503472222 18.4486762152778  18.4486762152778 11.9585503472222  26.6455078125 7.17513020833333  C 34.8423394097222 2.39171006944444  43.7938368055556 0  53.5 0  C 63.2061631944445 0  72.1576605902778 2.39171006944444  80.3544921875 7.17513020833333  C 88.5513237847222 11.9585503472222  95.0414496527778 18.4486762152778  99.8248697916667 26.6455078125  Z " fill-rule="nonzero" fill="#384d59" stroke="none" transform="matrix(1 0 0 1 1433 215 )" />
  </g>
</svg>