<?xml version="1.0" encoding="utf-8"?>
<svg version="1.1" xmlns:xlink="http://www.w3.org/1999/xlink" width="107px" height="107px" xmlns="http://www.w3.org/2000/svg">
  <g transform="matrix(1 0 0 1 -380 -215 )">
    <path d="M 87.8430989583333 61.0930989583333  C 88.7254774305556 60.2107204861111  89.1666666666667 59.1657986111111  89.1666666666667 57.9583333333333  L 89.1666666666667 49.0416666666667  C 89.1666666666667 47.8342013888889  88.7254774305556 46.7892795138889  87.8430989583333 45.9069010416667  C 86.9607204861111 45.0245225694445  85.9157986111111 44.5833333333333  84.7083333333333 45  L 49.73828125 45  L 62.904296875 31.4173177083333  C 63.7866753472222 30.5349392361111  64.2278645833333 29.4900173611111  64.2278645833333 28.2825520833333  C 64.2278645833333 27.0750868055555  63.7866753472222 26.0301649305555  62.904296875 25.1477864583333  L 56.5651041666667 18.80859375  C 55.7291666666667 17.97265625  54.6842447916667 17.5546875  53.4303385416667 17.5546875  C 52.1764322916667 17.5546875  51.1315104166667 17.97265625  50.2955729166667 18.80859375  L 25.078125 44.0260416666667  L 18.7389322916667 50.365234375  C 17.9029947916667 51.201171875  17.4850260416667 52.24609375  17.4850260416667 53.5  C 17.4850260416667 54.75390625  17.9029947916667 55.798828125  18.7389322916667 56.634765625  L 25.078125 62.9739583333333  L 50.2955729166667 88.19140625  C 51.1315104166667 89.02734375  52.1764322916667 89.4453125  53.4303385416667 89.4453125  C 54.6842447916667 89.4453125  55.7291666666667 89.02734375  56.5651041666667 88.19140625  L 62.904296875 81.8522135416667  C 63.740234375 81.0162760416667  64.158203125 79.9713541666667  64.158203125 78.7174479166667  C 64.158203125 77.4635416666667  63.740234375 76.4186197916667  62.904296875 75.5826822916667  L 49.73828125 62  L 84.7083333333333 62  C 85.9157986111111 62.4166666666667  86.9607204861111 61.9754774305556  87.8430989583333 61.0930989583333  Z M 99.8248697916667 26.6455078125  C 104.608289930556 34.8423394097222  107 43.7938368055555  107 53.5  C 107 63.2061631944445  104.608289930556 72.1576605902778  99.8248697916667 80.3544921875  C 95.0414496527778 88.5513237847222  88.5513237847222 95.0414496527778  80.3544921875 99.8248697916667  C 72.1576605902778 104.608289930556  63.2061631944445 107  53.5 107  C 43.7938368055556 107  34.8423394097222 104.608289930556  26.6455078125 99.8248697916667  C 18.4486762152778 95.0414496527778  11.9585503472222 88.5513237847222  7.17513020833333 80.3544921875  C 2.39171006944444 72.1576605902778  0 63.2061631944445  0 53.5  C 0 43.7938368055555  2.39171006944444 34.8423394097222  7.17513020833333 26.6455078125  C 11.9585503472222 18.4486762152778  18.4486762152778 11.9585503472222  26.6455078125 7.17513020833333  C 34.8423394097222 2.39171006944444  43.7938368055556 0  53.5 0  C 63.2061631944445 0  72.1576605902778 2.39171006944444  80.3544921875 7.17513020833333  C 88.5513237847222 11.9585503472222  95.0414496527778 18.4486762152778  99.8248697916667 26.6455078125  Z " fill-rule="nonzero" fill="#384d59" stroke="none" transform="matrix(1 0 0 1 380 215 )" />
  </g>
</svg>