<?xml version="1.0" encoding="utf-8"?>
<svg version="1.1" xmlns:xlink="http://www.w3.org/1999/xlink" width="34px" height="34px" xmlns="http://www.w3.org/2000/svg">
  <g transform="matrix(1 0 0 1 -54 0 )">
    <path d="M 71 2  C 79.4 2  86 8.6  86 17  C 86 25.4  79.4 32  71 32  C 62.6 32  56 25.4  56 17  C 56 8.6  62.6 2  71 2  Z " fill-rule="nonzero" fill="#ffffff" stroke="none" fill-opacity="0" />
    <path d="M 71 1.5  C 79.68 1.5  86.5 8.32  86.5 17  C 86.5 25.68  79.68 32.5  71 32.5  C 62.32 32.5  55.5 25.68  55.5 17  C 55.5 8.32  62.32 1.5  71 1.5  Z " stroke-width="3" stroke="#ffffff" fill="none" />
  </g>
</svg>